<svg id="Layer_1" data-name="Layer 1" xmlns="http://www.w3.org/2000/svg" viewBox="0 0 512 512"><defs><style>.cls-1{fill:#96daea;}.cls-2{fill:#141f38;}.cls-3{fill:#5ecaef;}.cls-4{fill:#ff5f6e;}.cls-5{fill:#d1e1e8;}</style></defs><title>mailbox-filled</title><path class="cls-1" d="M229.74,400.41H39.38A32.82,32.82,0,0,1,6.56,367.59V249.44A111.59,111.59,0,0,1,118.15,137.85h0A111.59,111.59,0,0,1,229.74,249.44Z"/><path class="cls-2" d="M229.74,407H39.38A39.43,39.43,0,0,1,0,367.59V249.44a118.15,118.15,0,0,1,236.31,0v151A6.56,6.56,0,0,1,229.74,407ZM118.15,144.41a105.15,105.15,0,0,0-105,105V367.59a26.29,26.29,0,0,0,26.26,26.26H223.18V249.44A105.15,105.15,0,0,0,118.15,144.41Z"/><path class="cls-3" d="M393.85,137.85H118.15A111.59,111.59,0,0,1,229.74,249.44v151H472.62a32.82,32.82,0,0,0,32.82-32.82V249.44A111.59,111.59,0,0,0,393.85,137.85Z"/><path class="cls-2" d="M472.62,407H229.74a6.56,6.56,0,0,1-6.56-6.56v-151a105.15,105.15,0,0,0-105-105,6.56,6.56,0,1,1,0-13.13H393.85A118.29,118.29,0,0,1,512,249.44V367.59A39.43,39.43,0,0,1,472.62,407ZM236.31,393.85H472.62a26.29,26.29,0,0,0,26.26-26.26V249.44a105.15,105.15,0,0,0-105-105H172.25a118.28,118.28,0,0,1,64.05,105Z"/><path class="cls-2" d="M164.1,275.69H72.21a6.56,6.56,0,1,1,0-13.13h91.9a6.56,6.56,0,1,1,0,13.13Z"/><path class="cls-2" d="M164.1,328.21H72.21a6.56,6.56,0,1,1,0-13.13h91.9a6.56,6.56,0,1,1,0,13.13Z"/><path class="cls-2" d="M295.38,223.18a6.56,6.56,0,0,1-6.56-6.56V85.33a6.56,6.56,0,1,1,13.13,0V216.62A6.56,6.56,0,0,1,295.38,223.18Z"/><path class="cls-4" d="M315.08,6.56h78.77a19.69,19.69,0,0,1,19.69,19.69V65.64a19.69,19.69,0,0,1-19.69,19.69H295.38a0,0,0,0,1,0,0V26.26A19.69,19.69,0,0,1,315.08,6.56Z"/><path class="cls-2" d="M393.85,91.9h-105V26.26A26.29,26.29,0,0,1,315.08,0h78.77A26.29,26.29,0,0,1,420.1,26.26V65.64A26.29,26.29,0,0,1,393.85,91.9Zm-91.9-13.13h91.9A13.14,13.14,0,0,0,407,65.64V26.26a13.14,13.14,0,0,0-13.13-13.13H315.08a13.14,13.14,0,0,0-13.13,13.13Z"/><path class="cls-5" d="M256,505.44h0a26.26,26.26,0,0,1-26.26-26.26V400.41h52.51v78.77A26.26,26.26,0,0,1,256,505.44Z"/><path class="cls-2" d="M256,512a32.86,32.86,0,0,1-32.82-32.82V400.41a6.56,6.56,0,0,1,6.56-6.56h52.51a6.56,6.56,0,0,1,6.56,6.56v78.77A32.86,32.86,0,0,1,256,512ZM236.31,407v72.21a19.69,19.69,0,0,0,39.38,0V407Z"/></svg>